<mxfile host="app.diagrams.net" modified="2021-09-30T11:52:29.827Z" agent="5.0 (Windows NT 10.0; Win64; x64) AppleWebKit/537.36 (KHTML, like Gecko) Chrome/94.0.4606.54 Safari/537.36" etag="1BoMnN3Qt0TlOnsRrOMY" version="15.3.8" type="github">
  <diagram id="C5RBs43oDa-KdzZeNtuy" name="Page-1">
    <mxGraphModel dx="2401" dy="877" grid="1" gridSize="10" guides="1" tooltips="1" connect="1" arrows="1" fold="1" page="1" pageScale="1" pageWidth="827" pageHeight="1169" math="0" shadow="0">
      <root>
        <mxCell id="WIyWlLk6GJQsqaUBKTNV-0" />
        <mxCell id="WIyWlLk6GJQsqaUBKTNV-1" parent="WIyWlLk6GJQsqaUBKTNV-0" />
        <mxCell id="yoc0TBMm4PGA1LQ2HY4O-24" style="edgeStyle=orthogonalEdgeStyle;rounded=0;orthogonalLoop=1;jettySize=auto;html=1;exitX=1;exitY=0.067;exitDx=0;exitDy=0;exitPerimeter=0;entryX=0.006;entryY=0.05;entryDx=0;entryDy=0;entryPerimeter=0;" edge="1" parent="WIyWlLk6GJQsqaUBKTNV-1" source="zkfFHV4jXpPFQw0GAbJ--0" target="zkfFHV4jXpPFQw0GAbJ--13">
          <mxGeometry relative="1" as="geometry">
            <mxPoint x="450" y="130" as="targetPoint" />
          </mxGeometry>
        </mxCell>
        <mxCell id="yoc0TBMm4PGA1LQ2HY4O-25" style="edgeStyle=orthogonalEdgeStyle;rounded=0;orthogonalLoop=1;jettySize=auto;html=1;exitX=0.5;exitY=0;exitDx=0;exitDy=0;" edge="1" parent="WIyWlLk6GJQsqaUBKTNV-1" source="zkfFHV4jXpPFQw0GAbJ--0">
          <mxGeometry relative="1" as="geometry">
            <mxPoint x="290" y="320" as="targetPoint" />
          </mxGeometry>
        </mxCell>
        <mxCell id="zkfFHV4jXpPFQw0GAbJ--0" value="Marks" style="swimlane;fontStyle=3;align=center;verticalAlign=top;childLayout=stackLayout;horizontal=1;startSize=26;horizontalStack=0;resizeParent=1;resizeLast=0;collapsible=1;marginBottom=0;rounded=0;shadow=0;strokeWidth=1;" parent="WIyWlLk6GJQsqaUBKTNV-1" vertex="1">
          <mxGeometry x="50" y="30" width="150" height="150" as="geometry">
            <mxRectangle x="230" y="140" width="160" height="26" as="alternateBounds" />
          </mxGeometry>
        </mxCell>
        <mxCell id="zkfFHV4jXpPFQw0GAbJ--1" value="Mercedes" style="text;align=center;verticalAlign=top;spacingLeft=4;spacingRight=4;overflow=hidden;rotatable=0;points=[[0,0.5],[1,0.5]];portConstraint=eastwest;" parent="zkfFHV4jXpPFQw0GAbJ--0" vertex="1">
          <mxGeometry y="26" width="150" height="26" as="geometry" />
        </mxCell>
        <mxCell id="zkfFHV4jXpPFQw0GAbJ--2" value="BMW" style="text;align=center;verticalAlign=top;spacingLeft=4;spacingRight=4;overflow=hidden;rotatable=0;points=[[0,0.5],[1,0.5]];portConstraint=eastwest;rounded=0;shadow=0;html=0;strokeColor=default;" parent="zkfFHV4jXpPFQw0GAbJ--0" vertex="1">
          <mxGeometry y="52" width="150" height="26" as="geometry" />
        </mxCell>
        <mxCell id="zkfFHV4jXpPFQw0GAbJ--3" value="Honda" style="text;align=center;verticalAlign=top;spacingLeft=4;spacingRight=4;overflow=hidden;rotatable=0;points=[[0,0.5],[1,0.5]];portConstraint=eastwest;rounded=0;shadow=0;html=0;strokeColor=default;" parent="zkfFHV4jXpPFQw0GAbJ--0" vertex="1">
          <mxGeometry y="78" width="150" height="26" as="geometry" />
        </mxCell>
        <mxCell id="zkfFHV4jXpPFQw0GAbJ--5" value="Toyota" style="text;align=center;verticalAlign=top;spacingLeft=4;spacingRight=4;overflow=hidden;rotatable=0;points=[[0,0.5],[1,0.5]];portConstraint=eastwest;" parent="zkfFHV4jXpPFQw0GAbJ--0" vertex="1">
          <mxGeometry y="104" width="150" height="18" as="geometry" />
        </mxCell>
        <mxCell id="zkfFHV4jXpPFQw0GAbJ--4" value="" style="line;html=1;strokeWidth=1;align=left;verticalAlign=middle;spacingTop=-1;spacingLeft=3;spacingRight=3;rotatable=0;labelPosition=right;points=[];portConstraint=eastwest;" parent="zkfFHV4jXpPFQw0GAbJ--0" vertex="1">
          <mxGeometry y="122" width="150" height="8" as="geometry" />
        </mxCell>
        <mxCell id="yoc0TBMm4PGA1LQ2HY4O-2" value="Porshe&lt;br&gt;" style="text;html=1;align=center;verticalAlign=middle;resizable=0;points=[];autosize=1;strokeColor=none;fillColor=none;rounded=0;" vertex="1" parent="zkfFHV4jXpPFQw0GAbJ--0">
          <mxGeometry y="130" width="150" height="20" as="geometry" />
        </mxCell>
        <mxCell id="zkfFHV4jXpPFQw0GAbJ--13" value="Auto" style="swimlane;fontStyle=3;align=center;verticalAlign=top;childLayout=stackLayout;horizontal=1;startSize=26;horizontalStack=0;resizeParent=1;resizeLast=0;collapsible=1;marginBottom=0;rounded=0;shadow=0;strokeWidth=1;" parent="WIyWlLk6GJQsqaUBKTNV-1" vertex="1">
          <mxGeometry x="430" y="50" width="180" height="200" as="geometry">
            <mxRectangle x="340" y="380" width="170" height="26" as="alternateBounds" />
          </mxGeometry>
        </mxCell>
        <mxCell id="zkfFHV4jXpPFQw0GAbJ--14" value="Mark" style="text;align=center;verticalAlign=top;spacingLeft=4;spacingRight=4;overflow=hidden;rotatable=0;points=[[0,0.5],[1,0.5]];portConstraint=eastwest;" parent="zkfFHV4jXpPFQw0GAbJ--13" vertex="1">
          <mxGeometry y="26" width="180" height="26" as="geometry" />
        </mxCell>
        <mxCell id="yoc0TBMm4PGA1LQ2HY4O-4" value="Model Name" style="whiteSpace=wrap;html=1;rounded=0;strokeColor=default;align=center;" vertex="1" parent="zkfFHV4jXpPFQw0GAbJ--13">
          <mxGeometry y="52" width="180" height="30" as="geometry" />
        </mxCell>
        <mxCell id="yoc0TBMm4PGA1LQ2HY4O-5" value="Unic Num" style="whiteSpace=wrap;html=1;rounded=0;strokeColor=default;align=center;" vertex="1" parent="zkfFHV4jXpPFQw0GAbJ--13">
          <mxGeometry y="82" width="180" height="28" as="geometry" />
        </mxCell>
        <mxCell id="yoc0TBMm4PGA1LQ2HY4O-6" value="Dvigatel" style="whiteSpace=wrap;html=1;rounded=0;strokeColor=default;align=center;" vertex="1" parent="zkfFHV4jXpPFQw0GAbJ--13">
          <mxGeometry y="110" width="180" height="30" as="geometry" />
        </mxCell>
        <mxCell id="yoc0TBMm4PGA1LQ2HY4O-7" value="Privod" style="whiteSpace=wrap;html=1;rounded=0;strokeColor=default;align=center;" vertex="1" parent="zkfFHV4jXpPFQw0GAbJ--13">
          <mxGeometry y="140" width="180" height="60" as="geometry" />
        </mxCell>
        <mxCell id="yoc0TBMm4PGA1LQ2HY4O-8" value="" style="whiteSpace=wrap;html=1;rounded=0;strokeColor=default;align=center;" vertex="1" parent="zkfFHV4jXpPFQw0GAbJ--13">
          <mxGeometry y="200" width="180" as="geometry" />
        </mxCell>
        <mxCell id="yoc0TBMm4PGA1LQ2HY4O-33" style="edgeStyle=orthogonalEdgeStyle;rounded=0;orthogonalLoop=1;jettySize=auto;html=1;entryX=0.5;entryY=0;entryDx=0;entryDy=0;exitX=1.005;exitY=0.045;exitDx=0;exitDy=0;exitPerimeter=0;" edge="1" parent="WIyWlLk6GJQsqaUBKTNV-1" source="yoc0TBMm4PGA1LQ2HY4O-12" target="yoc0TBMm4PGA1LQ2HY4O-26">
          <mxGeometry relative="1" as="geometry" />
        </mxCell>
        <mxCell id="yoc0TBMm4PGA1LQ2HY4O-12" value="Models" style="swimlane;rounded=0;strokeColor=default;align=center;" vertex="1" parent="WIyWlLk6GJQsqaUBKTNV-1">
          <mxGeometry x="190" y="320" width="200" height="200" as="geometry" />
        </mxCell>
        <mxCell id="yoc0TBMm4PGA1LQ2HY4O-13" value="Fit" style="whiteSpace=wrap;html=1;rounded=0;strokeColor=default;align=center;" vertex="1" parent="yoc0TBMm4PGA1LQ2HY4O-12">
          <mxGeometry y="20" width="200" height="30" as="geometry" />
        </mxCell>
        <mxCell id="yoc0TBMm4PGA1LQ2HY4O-14" value="Supra" style="whiteSpace=wrap;html=1;rounded=0;strokeColor=default;align=center;" vertex="1" parent="yoc0TBMm4PGA1LQ2HY4O-12">
          <mxGeometry y="50" width="200" height="40" as="geometry" />
        </mxCell>
        <mxCell id="yoc0TBMm4PGA1LQ2HY4O-15" value="BenZ" style="whiteSpace=wrap;html=1;rounded=0;strokeColor=default;align=center;" vertex="1" parent="yoc0TBMm4PGA1LQ2HY4O-12">
          <mxGeometry y="90" width="200" height="40" as="geometry" />
        </mxCell>
        <mxCell id="yoc0TBMm4PGA1LQ2HY4O-18" value="SportBack" style="whiteSpace=wrap;html=1;rounded=0;strokeColor=default;align=center;" vertex="1" parent="yoc0TBMm4PGA1LQ2HY4O-12">
          <mxGeometry y="130" width="200" height="30" as="geometry" />
        </mxCell>
        <mxCell id="yoc0TBMm4PGA1LQ2HY4O-20" value="Sedan&lt;br&gt;" style="text;html=1;align=center;verticalAlign=middle;resizable=0;points=[];autosize=1;strokeColor=none;fillColor=none;" vertex="1" parent="yoc0TBMm4PGA1LQ2HY4O-12">
          <mxGeometry x="75" y="170" width="50" height="20" as="geometry" />
        </mxCell>
        <mxCell id="yoc0TBMm4PGA1LQ2HY4O-43" style="edgeStyle=orthogonalEdgeStyle;rounded=0;orthogonalLoop=1;jettySize=auto;html=1;entryX=0.5;entryY=0;entryDx=0;entryDy=0;exitX=0;exitY=0.05;exitDx=0;exitDy=0;exitPerimeter=0;" edge="1" parent="WIyWlLk6GJQsqaUBKTNV-1" source="yoc0TBMm4PGA1LQ2HY4O-26" target="yoc0TBMm4PGA1LQ2HY4O-37">
          <mxGeometry relative="1" as="geometry" />
        </mxCell>
        <mxCell id="yoc0TBMm4PGA1LQ2HY4O-26" value="Dvigatel" style="swimlane;rounded=0;strokeColor=default;align=center;" vertex="1" parent="WIyWlLk6GJQsqaUBKTNV-1">
          <mxGeometry x="460" y="520" width="200" height="200" as="geometry" />
        </mxCell>
        <mxCell id="yoc0TBMm4PGA1LQ2HY4O-29" value="Dizel" style="whiteSpace=wrap;html=1;rounded=0;strokeColor=default;align=center;" vertex="1" parent="yoc0TBMm4PGA1LQ2HY4O-26">
          <mxGeometry y="20" width="200" height="50" as="geometry" />
        </mxCell>
        <mxCell id="yoc0TBMm4PGA1LQ2HY4O-31" value="Benzin" style="whiteSpace=wrap;html=1;rounded=0;strokeColor=default;align=center;" vertex="1" parent="yoc0TBMm4PGA1LQ2HY4O-26">
          <mxGeometry y="70" width="200" height="60" as="geometry" />
        </mxCell>
        <mxCell id="yoc0TBMm4PGA1LQ2HY4O-32" value="Gibrid" style="whiteSpace=wrap;html=1;rounded=0;strokeColor=default;align=center;" vertex="1" parent="yoc0TBMm4PGA1LQ2HY4O-26">
          <mxGeometry y="130" width="200" height="70" as="geometry" />
        </mxCell>
        <mxCell id="yoc0TBMm4PGA1LQ2HY4O-27" value="Privod" style="swimlane;rounded=0;strokeColor=default;align=center;startSize=23;labelBackgroundColor=default;labelBorderColor=#000000;" vertex="1" parent="WIyWlLk6GJQsqaUBKTNV-1">
          <mxGeometry x="-80" y="520" width="200" height="200" as="geometry" />
        </mxCell>
        <mxCell id="yoc0TBMm4PGA1LQ2HY4O-34" value="Peredniy" style="whiteSpace=wrap;html=1;rounded=0;strokeColor=default;align=center;" vertex="1" parent="yoc0TBMm4PGA1LQ2HY4O-27">
          <mxGeometry y="20" width="200" height="90" as="geometry" />
        </mxCell>
        <mxCell id="yoc0TBMm4PGA1LQ2HY4O-35" value="Adniy" style="whiteSpace=wrap;html=1;rounded=0;labelBackgroundColor=default;strokeColor=default;align=center;" vertex="1" parent="yoc0TBMm4PGA1LQ2HY4O-27">
          <mxGeometry y="110" width="200" height="90" as="geometry" />
        </mxCell>
        <mxCell id="yoc0TBMm4PGA1LQ2HY4O-36" style="edgeStyle=orthogonalEdgeStyle;rounded=0;orthogonalLoop=1;jettySize=auto;html=1;entryX=0.5;entryY=0;entryDx=0;entryDy=0;exitX=-0.025;exitY=0.06;exitDx=0;exitDy=0;exitPerimeter=0;" edge="1" parent="WIyWlLk6GJQsqaUBKTNV-1" source="yoc0TBMm4PGA1LQ2HY4O-12" target="yoc0TBMm4PGA1LQ2HY4O-27">
          <mxGeometry relative="1" as="geometry" />
        </mxCell>
        <mxCell id="yoc0TBMm4PGA1LQ2HY4O-37" value="Obyom" style="swimlane;rounded=0;labelBackgroundColor=default;strokeColor=default;align=center;" vertex="1" parent="WIyWlLk6GJQsqaUBKTNV-1">
          <mxGeometry x="210" y="680" width="200" height="200" as="geometry" />
        </mxCell>
        <mxCell id="yoc0TBMm4PGA1LQ2HY4O-38" value="Sredne" style="whiteSpace=wrap;html=1;rounded=0;labelBackgroundColor=default;strokeColor=default;align=center;" vertex="1" parent="yoc0TBMm4PGA1LQ2HY4O-37">
          <mxGeometry y="20" width="200" height="60" as="geometry" />
        </mxCell>
        <mxCell id="yoc0TBMm4PGA1LQ2HY4O-41" value="Malo" style="whiteSpace=wrap;html=1;rounded=0;labelBackgroundColor=default;strokeColor=default;align=center;" vertex="1" parent="yoc0TBMm4PGA1LQ2HY4O-37">
          <mxGeometry y="80" width="200" height="60" as="geometry" />
        </mxCell>
        <mxCell id="yoc0TBMm4PGA1LQ2HY4O-42" value="Mnogo" style="text;html=1;align=center;verticalAlign=middle;resizable=0;points=[];autosize=1;strokeColor=none;fillColor=none;" vertex="1" parent="yoc0TBMm4PGA1LQ2HY4O-37">
          <mxGeometry x="70" y="160" width="50" height="20" as="geometry" />
        </mxCell>
        <mxCell id="yoc0TBMm4PGA1LQ2HY4O-61" value="Таблица Модели" style="swimlane;rounded=0;labelBackgroundColor=default;strokeColor=default;align=center;" vertex="1" parent="WIyWlLk6GJQsqaUBKTNV-1">
          <mxGeometry x="-790" y="1120" width="610" height="230" as="geometry" />
        </mxCell>
        <mxCell id="yoc0TBMm4PGA1LQ2HY4O-62" value="№ модели" style="whiteSpace=wrap;html=1;rounded=0;labelBackgroundColor=default;strokeColor=default;align=center;" vertex="1" parent="yoc0TBMm4PGA1LQ2HY4O-61">
          <mxGeometry y="20" width="120" height="50" as="geometry" />
        </mxCell>
        <mxCell id="yoc0TBMm4PGA1LQ2HY4O-63" value="1" style="whiteSpace=wrap;html=1;rounded=0;labelBackgroundColor=default;strokeColor=default;align=center;" vertex="1" parent="yoc0TBMm4PGA1LQ2HY4O-61">
          <mxGeometry y="70" width="120" height="80" as="geometry" />
        </mxCell>
        <mxCell id="yoc0TBMm4PGA1LQ2HY4O-64" value="2" style="whiteSpace=wrap;html=1;rounded=0;labelBackgroundColor=default;strokeColor=default;align=center;" vertex="1" parent="yoc0TBMm4PGA1LQ2HY4O-61">
          <mxGeometry y="150" width="120" height="80" as="geometry" />
        </mxCell>
        <mxCell id="yoc0TBMm4PGA1LQ2HY4O-67" value="Название модели" style="whiteSpace=wrap;html=1;rounded=0;labelBackgroundColor=default;fontSize=15;strokeColor=default;align=center;" vertex="1" parent="yoc0TBMm4PGA1LQ2HY4O-61">
          <mxGeometry x="120" y="20" width="130" height="50" as="geometry" />
        </mxCell>
        <mxCell id="yoc0TBMm4PGA1LQ2HY4O-71" value="Номер марки" style="whiteSpace=wrap;html=1;rounded=0;labelBackgroundColor=default;fontSize=15;strokeColor=default;align=center;" vertex="1" parent="yoc0TBMm4PGA1LQ2HY4O-61">
          <mxGeometry x="250" y="20" width="130" height="50" as="geometry" />
        </mxCell>
        <mxCell id="yoc0TBMm4PGA1LQ2HY4O-74" value="Фит" style="whiteSpace=wrap;html=1;rounded=0;labelBackgroundColor=default;fontSize=15;strokeColor=default;align=center;" vertex="1" parent="yoc0TBMm4PGA1LQ2HY4O-61">
          <mxGeometry x="120" y="70" width="130" height="80" as="geometry" />
        </mxCell>
        <mxCell id="yoc0TBMm4PGA1LQ2HY4O-75" value="Седан" style="whiteSpace=wrap;html=1;rounded=0;labelBackgroundColor=default;fontSize=15;strokeColor=default;align=center;" vertex="1" parent="yoc0TBMm4PGA1LQ2HY4O-61">
          <mxGeometry x="120" y="150" width="130" height="80" as="geometry" />
        </mxCell>
        <mxCell id="yoc0TBMm4PGA1LQ2HY4O-76" value="2" style="whiteSpace=wrap;html=1;rounded=0;labelBackgroundColor=default;fontSize=15;strokeColor=default;align=center;" vertex="1" parent="yoc0TBMm4PGA1LQ2HY4O-61">
          <mxGeometry x="250" y="70" width="130" height="80" as="geometry" />
        </mxCell>
        <mxCell id="yoc0TBMm4PGA1LQ2HY4O-77" value="1" style="whiteSpace=wrap;html=1;rounded=0;labelBackgroundColor=default;fontSize=15;strokeColor=default;align=center;" vertex="1" parent="yoc0TBMm4PGA1LQ2HY4O-61">
          <mxGeometry x="250" y="150" width="130" height="80" as="geometry" />
        </mxCell>
        <mxCell id="yoc0TBMm4PGA1LQ2HY4O-82" value="Номер привода" style="whiteSpace=wrap;html=1;rounded=0;labelBackgroundColor=default;fontSize=15;strokeColor=default;align=center;" vertex="1" parent="yoc0TBMm4PGA1LQ2HY4O-61">
          <mxGeometry x="380" y="20" width="120" height="50" as="geometry" />
        </mxCell>
        <mxCell id="yoc0TBMm4PGA1LQ2HY4O-83" value="2" style="whiteSpace=wrap;html=1;rounded=0;labelBackgroundColor=default;fontSize=15;strokeColor=default;align=center;" vertex="1" parent="yoc0TBMm4PGA1LQ2HY4O-61">
          <mxGeometry x="380" y="70" width="120" height="80" as="geometry" />
        </mxCell>
        <mxCell id="yoc0TBMm4PGA1LQ2HY4O-84" value="2" style="whiteSpace=wrap;html=1;rounded=0;labelBackgroundColor=default;fontSize=15;strokeColor=default;align=center;" vertex="1" parent="yoc0TBMm4PGA1LQ2HY4O-61">
          <mxGeometry x="380" y="150" width="120" height="80" as="geometry" />
        </mxCell>
        <mxCell id="yoc0TBMm4PGA1LQ2HY4O-89" value="Номер двигателя" style="whiteSpace=wrap;html=1;rounded=0;labelBackgroundColor=default;fontSize=15;strokeColor=default;align=center;" vertex="1" parent="yoc0TBMm4PGA1LQ2HY4O-61">
          <mxGeometry x="500" y="20" width="110" height="50" as="geometry" />
        </mxCell>
        <mxCell id="yoc0TBMm4PGA1LQ2HY4O-91" value="2" style="whiteSpace=wrap;html=1;rounded=0;labelBackgroundColor=default;fontSize=15;strokeColor=default;align=center;" vertex="1" parent="yoc0TBMm4PGA1LQ2HY4O-61">
          <mxGeometry x="500" y="70" width="110" height="80" as="geometry" />
        </mxCell>
        <mxCell id="yoc0TBMm4PGA1LQ2HY4O-94" value="1" style="whiteSpace=wrap;html=1;rounded=0;labelBackgroundColor=default;fontSize=15;strokeColor=default;align=center;" vertex="1" parent="yoc0TBMm4PGA1LQ2HY4O-61">
          <mxGeometry x="500" y="150" width="110" height="80" as="geometry" />
        </mxCell>
        <mxCell id="yoc0TBMm4PGA1LQ2HY4O-78" value="Таблица привода" style="swimlane;rounded=0;labelBackgroundColor=default;fontSize=15;strokeColor=default;align=center;" vertex="1" parent="WIyWlLk6GJQsqaUBKTNV-1">
          <mxGeometry x="-160" y="1170" width="250" height="200" as="geometry" />
        </mxCell>
        <mxCell id="yoc0TBMm4PGA1LQ2HY4O-79" value="№ Привода" style="whiteSpace=wrap;html=1;rounded=0;labelBackgroundColor=default;fontSize=15;strokeColor=default;align=center;" vertex="1" parent="yoc0TBMm4PGA1LQ2HY4O-78">
          <mxGeometry x="1" y="20" width="120" height="60" as="geometry" />
        </mxCell>
        <mxCell id="yoc0TBMm4PGA1LQ2HY4O-80" value="Вид привода" style="whiteSpace=wrap;html=1;rounded=0;labelBackgroundColor=default;fontSize=15;strokeColor=default;align=center;" vertex="1" parent="yoc0TBMm4PGA1LQ2HY4O-78">
          <mxGeometry x="120" y="20" width="130" height="60" as="geometry" />
        </mxCell>
        <mxCell id="yoc0TBMm4PGA1LQ2HY4O-85" value="1" style="whiteSpace=wrap;html=1;rounded=0;labelBackgroundColor=default;fontSize=15;strokeColor=default;align=center;" vertex="1" parent="yoc0TBMm4PGA1LQ2HY4O-78">
          <mxGeometry y="80" width="120" height="60" as="geometry" />
        </mxCell>
        <mxCell id="yoc0TBMm4PGA1LQ2HY4O-87" value="Задний" style="whiteSpace=wrap;html=1;rounded=0;labelBackgroundColor=default;fontSize=15;strokeColor=default;align=center;" vertex="1" parent="yoc0TBMm4PGA1LQ2HY4O-78">
          <mxGeometry x="120" y="80" width="130" height="60" as="geometry" />
        </mxCell>
        <mxCell id="yoc0TBMm4PGA1LQ2HY4O-88" value="Передний" style="whiteSpace=wrap;html=1;rounded=0;labelBackgroundColor=default;fontSize=15;strokeColor=default;align=center;" vertex="1" parent="yoc0TBMm4PGA1LQ2HY4O-78">
          <mxGeometry x="120" y="140" width="130" height="60" as="geometry" />
        </mxCell>
        <mxCell id="yoc0TBMm4PGA1LQ2HY4O-86" value="2" style="whiteSpace=wrap;html=1;rounded=0;labelBackgroundColor=default;fontSize=15;strokeColor=default;align=center;" vertex="1" parent="yoc0TBMm4PGA1LQ2HY4O-78">
          <mxGeometry y="140" width="120" height="60" as="geometry" />
        </mxCell>
        <mxCell id="yoc0TBMm4PGA1LQ2HY4O-97" value="Таблица Двигателя" style="swimlane;rounded=0;labelBackgroundColor=default;fontSize=15;strokeColor=default;align=center;startSize=23;" vertex="1" parent="WIyWlLk6GJQsqaUBKTNV-1">
          <mxGeometry x="130" y="1169" width="370" height="200" as="geometry" />
        </mxCell>
        <mxCell id="yoc0TBMm4PGA1LQ2HY4O-98" value="№ двигателя" style="whiteSpace=wrap;html=1;rounded=0;labelBackgroundColor=default;fontSize=15;strokeColor=default;align=center;" vertex="1" parent="yoc0TBMm4PGA1LQ2HY4O-97">
          <mxGeometry y="20" width="120" height="60" as="geometry" />
        </mxCell>
        <mxCell id="yoc0TBMm4PGA1LQ2HY4O-99" value="вид двигателя" style="whiteSpace=wrap;html=1;rounded=0;labelBackgroundColor=default;fontSize=15;strokeColor=default;align=center;" vertex="1" parent="yoc0TBMm4PGA1LQ2HY4O-97">
          <mxGeometry x="120" y="20" width="130" height="60" as="geometry" />
        </mxCell>
        <mxCell id="yoc0TBMm4PGA1LQ2HY4O-100" value="1" style="whiteSpace=wrap;html=1;rounded=0;labelBackgroundColor=default;fontSize=15;strokeColor=default;align=center;" vertex="1" parent="yoc0TBMm4PGA1LQ2HY4O-97">
          <mxGeometry y="80" width="120" height="60" as="geometry" />
        </mxCell>
        <mxCell id="yoc0TBMm4PGA1LQ2HY4O-101" value="Дизельный" style="whiteSpace=wrap;html=1;rounded=0;labelBackgroundColor=default;fontSize=15;strokeColor=default;align=center;" vertex="1" parent="yoc0TBMm4PGA1LQ2HY4O-97">
          <mxGeometry x="120" y="80" width="130" height="60" as="geometry" />
        </mxCell>
        <mxCell id="yoc0TBMm4PGA1LQ2HY4O-102" value="Бензин" style="whiteSpace=wrap;html=1;rounded=0;labelBackgroundColor=default;fontSize=15;strokeColor=default;align=center;" vertex="1" parent="yoc0TBMm4PGA1LQ2HY4O-97">
          <mxGeometry x="120" y="140" width="130" height="60" as="geometry" />
        </mxCell>
        <mxCell id="yoc0TBMm4PGA1LQ2HY4O-103" value="2" style="whiteSpace=wrap;html=1;rounded=0;labelBackgroundColor=default;fontSize=15;strokeColor=default;align=center;" vertex="1" parent="yoc0TBMm4PGA1LQ2HY4O-97">
          <mxGeometry y="140" width="120" height="60" as="geometry" />
        </mxCell>
        <mxCell id="yoc0TBMm4PGA1LQ2HY4O-104" value="номер обьёма" style="whiteSpace=wrap;html=1;rounded=0;labelBackgroundColor=default;fontSize=15;strokeColor=default;align=center;" vertex="1" parent="yoc0TBMm4PGA1LQ2HY4O-97">
          <mxGeometry x="250" y="20" width="120" height="60" as="geometry" />
        </mxCell>
        <mxCell id="yoc0TBMm4PGA1LQ2HY4O-105" value="1" style="whiteSpace=wrap;html=1;rounded=0;labelBackgroundColor=default;fontSize=15;strokeColor=default;align=center;" vertex="1" parent="yoc0TBMm4PGA1LQ2HY4O-97">
          <mxGeometry x="250" y="80" width="120" height="60" as="geometry" />
        </mxCell>
        <mxCell id="yoc0TBMm4PGA1LQ2HY4O-106" value="2" style="text;html=1;align=center;verticalAlign=middle;resizable=0;points=[];autosize=1;strokeColor=none;fillColor=none;fontSize=15;" vertex="1" parent="yoc0TBMm4PGA1LQ2HY4O-97">
          <mxGeometry x="295" y="160" width="20" height="20" as="geometry" />
        </mxCell>
        <mxCell id="yoc0TBMm4PGA1LQ2HY4O-109" value="Таблица обьёма двигателя" style="swimlane;rounded=0;labelBackgroundColor=default;fontSize=15;strokeColor=default;align=center;" vertex="1" parent="WIyWlLk6GJQsqaUBKTNV-1">
          <mxGeometry x="530" y="1170" width="250" height="200" as="geometry" />
        </mxCell>
        <mxCell id="yoc0TBMm4PGA1LQ2HY4O-110" value="№ обьёма" style="whiteSpace=wrap;html=1;rounded=0;labelBackgroundColor=default;fontSize=15;strokeColor=default;align=center;" vertex="1" parent="yoc0TBMm4PGA1LQ2HY4O-109">
          <mxGeometry y="20" width="120" height="60" as="geometry" />
        </mxCell>
        <mxCell id="yoc0TBMm4PGA1LQ2HY4O-111" value="обьём" style="whiteSpace=wrap;html=1;rounded=0;labelBackgroundColor=default;fontSize=15;strokeColor=default;align=center;" vertex="1" parent="yoc0TBMm4PGA1LQ2HY4O-109">
          <mxGeometry x="120" y="20" width="130" height="60" as="geometry" />
        </mxCell>
        <mxCell id="yoc0TBMm4PGA1LQ2HY4O-112" value="1" style="whiteSpace=wrap;html=1;rounded=0;labelBackgroundColor=default;fontSize=15;strokeColor=default;align=center;" vertex="1" parent="yoc0TBMm4PGA1LQ2HY4O-109">
          <mxGeometry y="80" width="120" height="60" as="geometry" />
        </mxCell>
        <mxCell id="yoc0TBMm4PGA1LQ2HY4O-113" value="200" style="whiteSpace=wrap;html=1;rounded=0;labelBackgroundColor=default;fontSize=15;strokeColor=default;align=center;" vertex="1" parent="yoc0TBMm4PGA1LQ2HY4O-109">
          <mxGeometry x="120" y="80" width="130" height="60" as="geometry" />
        </mxCell>
        <mxCell id="yoc0TBMm4PGA1LQ2HY4O-114" value="400" style="whiteSpace=wrap;html=1;rounded=0;labelBackgroundColor=default;fontSize=15;strokeColor=default;align=center;" vertex="1" parent="yoc0TBMm4PGA1LQ2HY4O-109">
          <mxGeometry x="120" y="140" width="130" height="60" as="geometry" />
        </mxCell>
        <mxCell id="yoc0TBMm4PGA1LQ2HY4O-115" value="2" style="whiteSpace=wrap;html=1;rounded=0;labelBackgroundColor=default;fontSize=15;strokeColor=default;align=center;" vertex="1" parent="yoc0TBMm4PGA1LQ2HY4O-109">
          <mxGeometry y="140" width="120" height="60" as="geometry" />
        </mxCell>
        <mxCell id="yoc0TBMm4PGA1LQ2HY4O-117" value="Таблица Марки" style="swimlane;rounded=0;labelBackgroundColor=default;strokeColor=default;align=center;" vertex="1" parent="WIyWlLk6GJQsqaUBKTNV-1">
          <mxGeometry x="-790" y="870" width="740" height="230" as="geometry" />
        </mxCell>
        <mxCell id="yoc0TBMm4PGA1LQ2HY4O-118" value="№ Марки" style="whiteSpace=wrap;html=1;rounded=0;labelBackgroundColor=default;strokeColor=default;align=center;" vertex="1" parent="yoc0TBMm4PGA1LQ2HY4O-117">
          <mxGeometry y="20" width="120" height="50" as="geometry" />
        </mxCell>
        <mxCell id="yoc0TBMm4PGA1LQ2HY4O-119" value="1" style="whiteSpace=wrap;html=1;rounded=0;labelBackgroundColor=default;strokeColor=default;align=center;" vertex="1" parent="yoc0TBMm4PGA1LQ2HY4O-117">
          <mxGeometry y="70" width="120" height="80" as="geometry" />
        </mxCell>
        <mxCell id="yoc0TBMm4PGA1LQ2HY4O-120" value="2" style="whiteSpace=wrap;html=1;rounded=0;labelBackgroundColor=default;strokeColor=default;align=center;" vertex="1" parent="yoc0TBMm4PGA1LQ2HY4O-117">
          <mxGeometry y="150" width="120" height="80" as="geometry" />
        </mxCell>
        <mxCell id="yoc0TBMm4PGA1LQ2HY4O-121" value="Номер модели" style="whiteSpace=wrap;html=1;rounded=0;labelBackgroundColor=default;fontSize=15;strokeColor=default;align=center;" vertex="1" parent="yoc0TBMm4PGA1LQ2HY4O-117">
          <mxGeometry x="605" y="20" width="135" height="50" as="geometry" />
        </mxCell>
        <mxCell id="yoc0TBMm4PGA1LQ2HY4O-122" value="Номер марки" style="whiteSpace=wrap;html=1;rounded=0;labelBackgroundColor=default;fontSize=15;strokeColor=default;align=center;" vertex="1" parent="yoc0TBMm4PGA1LQ2HY4O-117">
          <mxGeometry x="250" y="20" width="130" height="50" as="geometry" />
        </mxCell>
        <mxCell id="yoc0TBMm4PGA1LQ2HY4O-125" value="2" style="whiteSpace=wrap;html=1;rounded=0;labelBackgroundColor=default;fontSize=15;strokeColor=default;align=center;" vertex="1" parent="yoc0TBMm4PGA1LQ2HY4O-117">
          <mxGeometry x="250" y="70" width="130" height="80" as="geometry" />
        </mxCell>
        <mxCell id="yoc0TBMm4PGA1LQ2HY4O-126" value="1" style="whiteSpace=wrap;html=1;rounded=0;labelBackgroundColor=default;fontSize=15;strokeColor=default;align=center;" vertex="1" parent="yoc0TBMm4PGA1LQ2HY4O-117">
          <mxGeometry x="250" y="150" width="130" height="80" as="geometry" />
        </mxCell>
        <mxCell id="yoc0TBMm4PGA1LQ2HY4O-127" value="Номер привода" style="whiteSpace=wrap;html=1;rounded=0;labelBackgroundColor=default;fontSize=15;strokeColor=default;align=center;" vertex="1" parent="yoc0TBMm4PGA1LQ2HY4O-117">
          <mxGeometry x="380" y="20" width="120" height="50" as="geometry" />
        </mxCell>
        <mxCell id="yoc0TBMm4PGA1LQ2HY4O-128" value="2" style="whiteSpace=wrap;html=1;rounded=0;labelBackgroundColor=default;fontSize=15;strokeColor=default;align=center;" vertex="1" parent="yoc0TBMm4PGA1LQ2HY4O-117">
          <mxGeometry x="380" y="70" width="120" height="80" as="geometry" />
        </mxCell>
        <mxCell id="yoc0TBMm4PGA1LQ2HY4O-129" value="2" style="whiteSpace=wrap;html=1;rounded=0;labelBackgroundColor=default;fontSize=15;strokeColor=default;align=center;" vertex="1" parent="yoc0TBMm4PGA1LQ2HY4O-117">
          <mxGeometry x="380" y="150" width="120" height="80" as="geometry" />
        </mxCell>
        <mxCell id="yoc0TBMm4PGA1LQ2HY4O-130" value="Номер двигателя" style="whiteSpace=wrap;html=1;rounded=0;labelBackgroundColor=default;fontSize=15;strokeColor=default;align=center;" vertex="1" parent="yoc0TBMm4PGA1LQ2HY4O-117">
          <mxGeometry x="500" y="20" width="110" height="50" as="geometry" />
        </mxCell>
        <mxCell id="yoc0TBMm4PGA1LQ2HY4O-131" value="2" style="whiteSpace=wrap;html=1;rounded=0;labelBackgroundColor=default;fontSize=15;strokeColor=default;align=center;" vertex="1" parent="yoc0TBMm4PGA1LQ2HY4O-117">
          <mxGeometry x="500" y="70" width="110" height="80" as="geometry" />
        </mxCell>
        <mxCell id="yoc0TBMm4PGA1LQ2HY4O-132" value="1" style="whiteSpace=wrap;html=1;rounded=0;labelBackgroundColor=default;fontSize=15;strokeColor=default;align=center;" vertex="1" parent="yoc0TBMm4PGA1LQ2HY4O-117">
          <mxGeometry x="500" y="150" width="110" height="80" as="geometry" />
        </mxCell>
        <mxCell id="yoc0TBMm4PGA1LQ2HY4O-133" value="Название марки" style="whiteSpace=wrap;html=1;rounded=0;labelBackgroundColor=default;fontSize=15;strokeColor=default;align=center;" vertex="1" parent="yoc0TBMm4PGA1LQ2HY4O-117">
          <mxGeometry x="120" y="20" width="130" height="50" as="geometry" />
        </mxCell>
        <mxCell id="yoc0TBMm4PGA1LQ2HY4O-134" value="мерс" style="whiteSpace=wrap;html=1;rounded=0;labelBackgroundColor=default;fontSize=15;strokeColor=default;align=center;" vertex="1" parent="yoc0TBMm4PGA1LQ2HY4O-117">
          <mxGeometry x="120" y="70" width="130" height="80" as="geometry" />
        </mxCell>
        <mxCell id="yoc0TBMm4PGA1LQ2HY4O-135" value="Порш" style="whiteSpace=wrap;html=1;rounded=0;labelBackgroundColor=default;fontSize=15;strokeColor=default;align=center;" vertex="1" parent="yoc0TBMm4PGA1LQ2HY4O-117">
          <mxGeometry x="120" y="150" width="130" height="80" as="geometry" />
        </mxCell>
        <mxCell id="yoc0TBMm4PGA1LQ2HY4O-123" value="1" style="whiteSpace=wrap;html=1;rounded=0;labelBackgroundColor=default;fontSize=15;strokeColor=default;align=center;" vertex="1" parent="yoc0TBMm4PGA1LQ2HY4O-117">
          <mxGeometry x="610" y="70" width="130" height="80" as="geometry" />
        </mxCell>
        <mxCell id="yoc0TBMm4PGA1LQ2HY4O-124" value="2" style="whiteSpace=wrap;html=1;rounded=0;labelBackgroundColor=default;fontSize=15;strokeColor=default;align=center;" vertex="1" parent="yoc0TBMm4PGA1LQ2HY4O-117">
          <mxGeometry x="610" y="150" width="130" height="80" as="geometry" />
        </mxCell>
        <mxCell id="yoc0TBMm4PGA1LQ2HY4O-136" value="Таблица Авто" style="swimlane;rounded=0;labelBackgroundColor=default;strokeColor=default;align=center;" vertex="1" parent="WIyWlLk6GJQsqaUBKTNV-1">
          <mxGeometry x="-30" y="910" width="740" height="230" as="geometry" />
        </mxCell>
        <mxCell id="yoc0TBMm4PGA1LQ2HY4O-137" value="№ Авто" style="whiteSpace=wrap;html=1;rounded=0;labelBackgroundColor=default;strokeColor=default;align=center;" vertex="1" parent="yoc0TBMm4PGA1LQ2HY4O-136">
          <mxGeometry y="20" width="120" height="50" as="geometry" />
        </mxCell>
        <mxCell id="yoc0TBMm4PGA1LQ2HY4O-138" value="1" style="whiteSpace=wrap;html=1;rounded=0;labelBackgroundColor=default;strokeColor=default;align=center;" vertex="1" parent="yoc0TBMm4PGA1LQ2HY4O-136">
          <mxGeometry y="70" width="120" height="80" as="geometry" />
        </mxCell>
        <mxCell id="yoc0TBMm4PGA1LQ2HY4O-139" value="2" style="whiteSpace=wrap;html=1;rounded=0;labelBackgroundColor=default;strokeColor=default;align=center;" vertex="1" parent="yoc0TBMm4PGA1LQ2HY4O-136">
          <mxGeometry y="150" width="120" height="80" as="geometry" />
        </mxCell>
        <mxCell id="yoc0TBMm4PGA1LQ2HY4O-140" value="Номер модели" style="whiteSpace=wrap;html=1;rounded=0;labelBackgroundColor=default;fontSize=15;strokeColor=default;align=center;" vertex="1" parent="yoc0TBMm4PGA1LQ2HY4O-136">
          <mxGeometry x="605" y="20" width="135" height="50" as="geometry" />
        </mxCell>
        <mxCell id="yoc0TBMm4PGA1LQ2HY4O-141" value="Номер марки" style="whiteSpace=wrap;html=1;rounded=0;labelBackgroundColor=default;fontSize=15;strokeColor=default;align=center;" vertex="1" parent="yoc0TBMm4PGA1LQ2HY4O-136">
          <mxGeometry x="250" y="20" width="130" height="50" as="geometry" />
        </mxCell>
        <mxCell id="yoc0TBMm4PGA1LQ2HY4O-142" value="2" style="whiteSpace=wrap;html=1;rounded=0;labelBackgroundColor=default;fontSize=15;strokeColor=default;align=center;" vertex="1" parent="yoc0TBMm4PGA1LQ2HY4O-136">
          <mxGeometry x="250" y="70" width="130" height="80" as="geometry" />
        </mxCell>
        <mxCell id="yoc0TBMm4PGA1LQ2HY4O-143" value="1" style="whiteSpace=wrap;html=1;rounded=0;labelBackgroundColor=default;fontSize=15;strokeColor=default;align=center;" vertex="1" parent="yoc0TBMm4PGA1LQ2HY4O-136">
          <mxGeometry x="250" y="150" width="130" height="80" as="geometry" />
        </mxCell>
        <mxCell id="yoc0TBMm4PGA1LQ2HY4O-144" value="Номер привода" style="whiteSpace=wrap;html=1;rounded=0;labelBackgroundColor=default;fontSize=15;strokeColor=default;align=center;" vertex="1" parent="yoc0TBMm4PGA1LQ2HY4O-136">
          <mxGeometry x="380" y="20" width="120" height="50" as="geometry" />
        </mxCell>
        <mxCell id="yoc0TBMm4PGA1LQ2HY4O-145" value="2" style="whiteSpace=wrap;html=1;rounded=0;labelBackgroundColor=default;fontSize=15;strokeColor=default;align=center;" vertex="1" parent="yoc0TBMm4PGA1LQ2HY4O-136">
          <mxGeometry x="380" y="70" width="120" height="80" as="geometry" />
        </mxCell>
        <mxCell id="yoc0TBMm4PGA1LQ2HY4O-146" value="2" style="whiteSpace=wrap;html=1;rounded=0;labelBackgroundColor=default;fontSize=15;strokeColor=default;align=center;" vertex="1" parent="yoc0TBMm4PGA1LQ2HY4O-136">
          <mxGeometry x="380" y="150" width="120" height="80" as="geometry" />
        </mxCell>
        <mxCell id="yoc0TBMm4PGA1LQ2HY4O-147" value="Номер двигателя" style="whiteSpace=wrap;html=1;rounded=0;labelBackgroundColor=default;fontSize=15;strokeColor=default;align=center;" vertex="1" parent="yoc0TBMm4PGA1LQ2HY4O-136">
          <mxGeometry x="500" y="20" width="110" height="50" as="geometry" />
        </mxCell>
        <mxCell id="yoc0TBMm4PGA1LQ2HY4O-148" value="2" style="whiteSpace=wrap;html=1;rounded=0;labelBackgroundColor=default;fontSize=15;strokeColor=default;align=center;" vertex="1" parent="yoc0TBMm4PGA1LQ2HY4O-136">
          <mxGeometry x="500" y="70" width="110" height="80" as="geometry" />
        </mxCell>
        <mxCell id="yoc0TBMm4PGA1LQ2HY4O-149" value="1" style="whiteSpace=wrap;html=1;rounded=0;labelBackgroundColor=default;fontSize=15;strokeColor=default;align=center;" vertex="1" parent="yoc0TBMm4PGA1LQ2HY4O-136">
          <mxGeometry x="500" y="150" width="110" height="80" as="geometry" />
        </mxCell>
        <mxCell id="yoc0TBMm4PGA1LQ2HY4O-150" value="уникальный номер" style="whiteSpace=wrap;html=1;rounded=0;labelBackgroundColor=default;fontSize=15;strokeColor=default;align=center;" vertex="1" parent="yoc0TBMm4PGA1LQ2HY4O-136">
          <mxGeometry x="120" y="20" width="130" height="50" as="geometry" />
        </mxCell>
        <mxCell id="yoc0TBMm4PGA1LQ2HY4O-152" value="Т8353ЛА" style="whiteSpace=wrap;html=1;rounded=0;labelBackgroundColor=default;fontSize=15;strokeColor=default;align=center;" vertex="1" parent="yoc0TBMm4PGA1LQ2HY4O-136">
          <mxGeometry x="120" y="150" width="130" height="80" as="geometry" />
        </mxCell>
        <mxCell id="yoc0TBMm4PGA1LQ2HY4O-153" value="1" style="whiteSpace=wrap;html=1;rounded=0;labelBackgroundColor=default;fontSize=15;strokeColor=default;align=center;" vertex="1" parent="yoc0TBMm4PGA1LQ2HY4O-136">
          <mxGeometry x="610" y="70" width="130" height="80" as="geometry" />
        </mxCell>
        <mxCell id="yoc0TBMm4PGA1LQ2HY4O-154" value="2" style="whiteSpace=wrap;html=1;rounded=0;labelBackgroundColor=default;fontSize=15;strokeColor=default;align=center;" vertex="1" parent="yoc0TBMm4PGA1LQ2HY4O-136">
          <mxGeometry x="610" y="150" width="130" height="80" as="geometry" />
        </mxCell>
        <mxCell id="yoc0TBMm4PGA1LQ2HY4O-155" value="И4022ИК" style="text;html=1;align=center;verticalAlign=middle;resizable=0;points=[];autosize=1;strokeColor=none;fillColor=none;fontSize=15;" vertex="1" parent="yoc0TBMm4PGA1LQ2HY4O-136">
          <mxGeometry x="140" y="100" width="80" height="20" as="geometry" />
        </mxCell>
        <mxCell id="yoc0TBMm4PGA1LQ2HY4O-156" value="" style="rounded=0;whiteSpace=wrap;html=1;labelBackgroundColor=default;fontSize=15;strokeColor=default;align=center;" vertex="1" parent="WIyWlLk6GJQsqaUBKTNV-1">
          <mxGeometry x="-120" y="1450" width="230" height="270" as="geometry" />
        </mxCell>
        <mxCell id="yoc0TBMm4PGA1LQ2HY4O-157" value="" style="rounded=0;whiteSpace=wrap;html=1;labelBackgroundColor=default;fontSize=15;strokeColor=default;align=center;" vertex="1" parent="WIyWlLk6GJQsqaUBKTNV-1">
          <mxGeometry x="-670" y="1450" width="210" height="150" as="geometry" />
        </mxCell>
        <mxCell id="yoc0TBMm4PGA1LQ2HY4O-158" value="id авто" style="text;html=1;strokeColor=none;fillColor=none;align=center;verticalAlign=middle;whiteSpace=wrap;rounded=0;labelBackgroundColor=default;fontSize=15;" vertex="1" parent="WIyWlLk6GJQsqaUBKTNV-1">
          <mxGeometry x="-70" y="1480" width="100" height="20" as="geometry" />
        </mxCell>
        <mxCell id="yoc0TBMm4PGA1LQ2HY4O-172" style="edgeStyle=orthogonalEdgeStyle;rounded=0;orthogonalLoop=1;jettySize=auto;html=1;exitX=1;exitY=0.5;exitDx=0;exitDy=0;entryX=0;entryY=0.5;entryDx=0;entryDy=0;fontSize=15;" edge="1" parent="WIyWlLk6GJQsqaUBKTNV-1" source="yoc0TBMm4PGA1LQ2HY4O-159" target="yoc0TBMm4PGA1LQ2HY4O-165">
          <mxGeometry relative="1" as="geometry" />
        </mxCell>
        <mxCell id="yoc0TBMm4PGA1LQ2HY4O-159" value="Id марки" style="text;html=1;strokeColor=none;fillColor=none;align=center;verticalAlign=middle;whiteSpace=wrap;rounded=0;labelBackgroundColor=default;fontSize=15;" vertex="1" parent="WIyWlLk6GJQsqaUBKTNV-1">
          <mxGeometry x="-640" y="1470" width="80" height="20" as="geometry" />
        </mxCell>
        <mxCell id="yoc0TBMm4PGA1LQ2HY4O-161" value="название марки" style="text;html=1;strokeColor=none;fillColor=none;align=center;verticalAlign=middle;whiteSpace=wrap;rounded=0;labelBackgroundColor=default;fontSize=15;" vertex="1" parent="WIyWlLk6GJQsqaUBKTNV-1">
          <mxGeometry x="-650" y="1500" width="140" height="20" as="geometry" />
        </mxCell>
        <mxCell id="yoc0TBMm4PGA1LQ2HY4O-162" value="номер марки" style="text;html=1;strokeColor=none;fillColor=none;align=center;verticalAlign=middle;whiteSpace=wrap;rounded=0;labelBackgroundColor=default;fontSize=15;" vertex="1" parent="WIyWlLk6GJQsqaUBKTNV-1">
          <mxGeometry x="-640" y="1530" width="120" height="20" as="geometry" />
        </mxCell>
        <mxCell id="yoc0TBMm4PGA1LQ2HY4O-163" value="номер авто" style="text;html=1;strokeColor=none;fillColor=none;align=center;verticalAlign=middle;whiteSpace=wrap;rounded=0;labelBackgroundColor=default;fontSize=15;" vertex="1" parent="WIyWlLk6GJQsqaUBKTNV-1">
          <mxGeometry x="-50" y="1510" width="100" height="20" as="geometry" />
        </mxCell>
        <mxCell id="yoc0TBMm4PGA1LQ2HY4O-165" value="номер марки" style="text;html=1;strokeColor=none;fillColor=none;align=center;verticalAlign=middle;whiteSpace=wrap;rounded=0;labelBackgroundColor=default;fontSize=15;" vertex="1" parent="WIyWlLk6GJQsqaUBKTNV-1">
          <mxGeometry x="-50" y="1540" width="100" height="20" as="geometry" />
        </mxCell>
        <mxCell id="yoc0TBMm4PGA1LQ2HY4O-169" value="Text" style="text;html=1;strokeColor=none;fillColor=none;align=center;verticalAlign=middle;whiteSpace=wrap;rounded=0;labelBackgroundColor=default;fontSize=15;" vertex="1" parent="WIyWlLk6GJQsqaUBKTNV-1">
          <mxGeometry x="-10" y="1330" width="40" height="20" as="geometry" />
        </mxCell>
        <mxCell id="yoc0TBMm4PGA1LQ2HY4O-170" value="номер привода" style="text;html=1;strokeColor=none;fillColor=none;align=center;verticalAlign=middle;whiteSpace=wrap;rounded=0;labelBackgroundColor=default;fontSize=15;" vertex="1" parent="WIyWlLk6GJQsqaUBKTNV-1">
          <mxGeometry x="-55" y="1570" width="110" height="20" as="geometry" />
        </mxCell>
        <mxCell id="yoc0TBMm4PGA1LQ2HY4O-173" value="" style="whiteSpace=wrap;html=1;rounded=0;labelBackgroundColor=default;fontSize=15;strokeColor=default;align=center;" vertex="1" parent="WIyWlLk6GJQsqaUBKTNV-1">
          <mxGeometry x="-550" y="1640" width="190" height="200" as="geometry" />
        </mxCell>
        <mxCell id="yoc0TBMm4PGA1LQ2HY4O-177" style="edgeStyle=orthogonalEdgeStyle;rounded=0;orthogonalLoop=1;jettySize=auto;html=1;entryX=0;entryY=0.5;entryDx=0;entryDy=0;fontSize=15;" edge="1" parent="WIyWlLk6GJQsqaUBKTNV-1" source="yoc0TBMm4PGA1LQ2HY4O-174" target="yoc0TBMm4PGA1LQ2HY4O-170">
          <mxGeometry relative="1" as="geometry" />
        </mxCell>
        <mxCell id="yoc0TBMm4PGA1LQ2HY4O-174" value="id Привода" style="text;html=1;align=center;verticalAlign=middle;resizable=0;points=[];autosize=1;strokeColor=none;fillColor=none;fontSize=15;" vertex="1" parent="WIyWlLk6GJQsqaUBKTNV-1">
          <mxGeometry x="-515" y="1660" width="90" height="20" as="geometry" />
        </mxCell>
        <mxCell id="yoc0TBMm4PGA1LQ2HY4O-175" value="вид привода" style="text;html=1;align=center;verticalAlign=middle;resizable=0;points=[];autosize=1;strokeColor=none;fillColor=none;fontSize=15;" vertex="1" parent="WIyWlLk6GJQsqaUBKTNV-1">
          <mxGeometry x="-513" y="1710" width="100" height="20" as="geometry" />
        </mxCell>
        <mxCell id="yoc0TBMm4PGA1LQ2HY4O-176" value="Номер привода" style="text;html=1;align=center;verticalAlign=middle;resizable=0;points=[];autosize=1;strokeColor=none;fillColor=none;fontSize=15;" vertex="1" parent="WIyWlLk6GJQsqaUBKTNV-1">
          <mxGeometry x="-515" y="1770" width="120" height="20" as="geometry" />
        </mxCell>
        <mxCell id="yoc0TBMm4PGA1LQ2HY4O-179" value="" style="whiteSpace=wrap;html=1;rounded=0;labelBackgroundColor=default;fontSize=15;strokeColor=default;align=center;" vertex="1" parent="WIyWlLk6GJQsqaUBKTNV-1">
          <mxGeometry x="230" y="1450" width="190" height="200" as="geometry" />
        </mxCell>
        <mxCell id="yoc0TBMm4PGA1LQ2HY4O-189" style="edgeStyle=orthogonalEdgeStyle;rounded=0;orthogonalLoop=1;jettySize=auto;html=1;fontSize=15;" edge="1" parent="WIyWlLk6GJQsqaUBKTNV-1" source="yoc0TBMm4PGA1LQ2HY4O-180">
          <mxGeometry relative="1" as="geometry">
            <mxPoint x="70" y="1620" as="targetPoint" />
            <Array as="points">
              <mxPoint x="193" y="1480" />
              <mxPoint x="193" y="1620" />
            </Array>
          </mxGeometry>
        </mxCell>
        <mxCell id="yoc0TBMm4PGA1LQ2HY4O-180" value="Id двигателя" style="text;html=1;align=center;verticalAlign=middle;resizable=0;points=[];autosize=1;strokeColor=none;fillColor=none;fontSize=15;" vertex="1" parent="WIyWlLk6GJQsqaUBKTNV-1">
          <mxGeometry x="275" y="1470" width="100" height="20" as="geometry" />
        </mxCell>
        <mxCell id="yoc0TBMm4PGA1LQ2HY4O-181" value="Вид Двигателя" style="text;html=1;align=center;verticalAlign=middle;resizable=0;points=[];autosize=1;strokeColor=none;fillColor=none;fontSize=15;" vertex="1" parent="WIyWlLk6GJQsqaUBKTNV-1">
          <mxGeometry x="265" y="1515" width="120" height="20" as="geometry" />
        </mxCell>
        <mxCell id="yoc0TBMm4PGA1LQ2HY4O-182" value="Номер двигателя" style="text;html=1;align=center;verticalAlign=middle;resizable=0;points=[];autosize=1;strokeColor=none;fillColor=none;fontSize=15;" vertex="1" parent="WIyWlLk6GJQsqaUBKTNV-1">
          <mxGeometry x="260" y="1560" width="140" height="20" as="geometry" />
        </mxCell>
        <mxCell id="yoc0TBMm4PGA1LQ2HY4O-183" value="Номер обьёма" style="text;html=1;align=center;verticalAlign=middle;resizable=0;points=[];autosize=1;strokeColor=none;fillColor=none;fontSize=15;" vertex="1" parent="WIyWlLk6GJQsqaUBKTNV-1">
          <mxGeometry x="275" y="1600" width="120" height="20" as="geometry" />
        </mxCell>
        <mxCell id="yoc0TBMm4PGA1LQ2HY4O-184" value="" style="whiteSpace=wrap;html=1;rounded=0;labelBackgroundColor=default;fontSize=15;strokeColor=default;align=center;" vertex="1" parent="WIyWlLk6GJQsqaUBKTNV-1">
          <mxGeometry x="570" y="1550" width="160" height="120" as="geometry" />
        </mxCell>
        <mxCell id="yoc0TBMm4PGA1LQ2HY4O-188" style="edgeStyle=orthogonalEdgeStyle;rounded=0;orthogonalLoop=1;jettySize=auto;html=1;fontSize=15;" edge="1" parent="WIyWlLk6GJQsqaUBKTNV-1" source="yoc0TBMm4PGA1LQ2HY4O-185" target="yoc0TBMm4PGA1LQ2HY4O-183">
          <mxGeometry relative="1" as="geometry">
            <Array as="points">
              <mxPoint x="530" y="1570" />
              <mxPoint x="530" y="1610" />
            </Array>
          </mxGeometry>
        </mxCell>
        <mxCell id="yoc0TBMm4PGA1LQ2HY4O-185" value="ID обьёма" style="text;html=1;align=center;verticalAlign=middle;resizable=0;points=[];autosize=1;strokeColor=none;fillColor=none;fontSize=15;" vertex="1" parent="WIyWlLk6GJQsqaUBKTNV-1">
          <mxGeometry x="580" y="1560" width="90" height="20" as="geometry" />
        </mxCell>
        <mxCell id="yoc0TBMm4PGA1LQ2HY4O-186" value="Номер обьёма" style="text;html=1;align=center;verticalAlign=middle;resizable=0;points=[];autosize=1;strokeColor=none;fillColor=none;fontSize=15;" vertex="1" parent="WIyWlLk6GJQsqaUBKTNV-1">
          <mxGeometry x="580" y="1590" width="120" height="20" as="geometry" />
        </mxCell>
        <mxCell id="yoc0TBMm4PGA1LQ2HY4O-187" value="Количество обьёма" style="text;html=1;align=center;verticalAlign=middle;resizable=0;points=[];autosize=1;strokeColor=none;fillColor=none;fontSize=15;" vertex="1" parent="WIyWlLk6GJQsqaUBKTNV-1">
          <mxGeometry x="575" y="1630" width="150" height="20" as="geometry" />
        </mxCell>
        <mxCell id="yoc0TBMm4PGA1LQ2HY4O-190" value="Номер двигателя&lt;br&gt;" style="text;html=1;align=center;verticalAlign=middle;resizable=0;points=[];autosize=1;strokeColor=none;fillColor=none;fontSize=15;" vertex="1" parent="WIyWlLk6GJQsqaUBKTNV-1">
          <mxGeometry x="-70" y="1610" width="140" height="20" as="geometry" />
        </mxCell>
        <mxCell id="yoc0TBMm4PGA1LQ2HY4O-192" value="" style="whiteSpace=wrap;html=1;rounded=0;labelBackgroundColor=default;fontSize=15;strokeColor=default;align=center;" vertex="1" parent="WIyWlLk6GJQsqaUBKTNV-1">
          <mxGeometry x="-620" y="1960" width="160" height="130" as="geometry" />
        </mxCell>
        <mxCell id="yoc0TBMm4PGA1LQ2HY4O-199" style="edgeStyle=orthogonalEdgeStyle;rounded=0;orthogonalLoop=1;jettySize=auto;html=1;entryX=-0.002;entryY=0.579;entryDx=0;entryDy=0;entryPerimeter=0;fontSize=15;" edge="1" parent="WIyWlLk6GJQsqaUBKTNV-1" source="yoc0TBMm4PGA1LQ2HY4O-195" target="yoc0TBMm4PGA1LQ2HY4O-198">
          <mxGeometry relative="1" as="geometry" />
        </mxCell>
        <mxCell id="yoc0TBMm4PGA1LQ2HY4O-195" value="Id модели" style="text;html=1;align=center;verticalAlign=middle;resizable=0;points=[];autosize=1;strokeColor=none;fillColor=none;fontSize=15;" vertex="1" parent="WIyWlLk6GJQsqaUBKTNV-1">
          <mxGeometry x="-590" y="1970" width="80" height="20" as="geometry" />
        </mxCell>
        <mxCell id="yoc0TBMm4PGA1LQ2HY4O-196" value="Номер модели" style="text;html=1;align=center;verticalAlign=middle;resizable=0;points=[];autosize=1;strokeColor=none;fillColor=none;fontSize=15;" vertex="1" parent="WIyWlLk6GJQsqaUBKTNV-1">
          <mxGeometry x="-610" y="2000" width="120" height="20" as="geometry" />
        </mxCell>
        <mxCell id="yoc0TBMm4PGA1LQ2HY4O-197" value="Название модели" style="text;html=1;align=center;verticalAlign=middle;resizable=0;points=[];autosize=1;strokeColor=none;fillColor=none;fontSize=15;" vertex="1" parent="WIyWlLk6GJQsqaUBKTNV-1">
          <mxGeometry x="-610" y="2030" width="140" height="20" as="geometry" />
        </mxCell>
        <mxCell id="yoc0TBMm4PGA1LQ2HY4O-198" value="Номер модели" style="text;html=1;align=center;verticalAlign=middle;resizable=0;points=[];autosize=1;strokeColor=none;fillColor=none;fontSize=15;" vertex="1" parent="WIyWlLk6GJQsqaUBKTNV-1">
          <mxGeometry x="-55" y="1660" width="120" height="20" as="geometry" />
        </mxCell>
      </root>
    </mxGraphModel>
  </diagram>
</mxfile>
